<svg width="30" height="30" fill="none" xmlns="http://www.w3.org/2000/svg"><path d="M29.121 7.09a.879.879 0 00-.879.879v.879h-1.816V4.395A4.4 4.4 0 0022.03 0H7.97a4.4 4.4 0 00-4.395 4.395v4.453H1.758v-.88a.879.879 0 00-1.758 0V15a.879.879 0 001.758 0v-.879h1.816v4.395C3.574 24.848 8.7 30 15 30s11.426-5.152 11.426-11.484V14.12h1.816V15A.879.879 0 0030 15V7.969a.879.879 0 00-.879-.88zM3.574 12.363H1.758v-1.758h1.816v1.758zm21.094 6.153c0 5.363-4.337 9.726-9.668 9.726-5.33 0-9.668-4.363-9.668-9.726v-9.82a2.625 2.625 0 002.637-.522 2.626 2.626 0 003.516 0 2.626 2.626 0 003.515 0 2.626 2.626 0 003.516 0 2.626 2.626 0 003.515 0 2.626 2.626 0 002.637.522v9.82zm0-12.305a.88.88 0 01-1.758 0 .879.879 0 00-1.758 0 .88.88 0 01-1.758 0 .879.879 0 00-1.757 0 .88.88 0 01-1.758 0 .879.879 0 00-1.758 0 .88.88 0 01-1.758 0 .879.879 0 00-1.758 0 .88.88 0 01-1.757 0 .879.879 0 00-1.758 0 .88.88 0 01-1.758 0V4.395a2.64 2.64 0 012.637-2.637H22.03a2.64 2.64 0 012.637 2.637V6.21zm3.574 6.152h-1.816v-1.758h1.816v1.758z" fill="#fff"/></svg>